<?xml version="1.0" standalone="no"?>
<!DOCTYPE svg PUBLIC "-//W3C//DTD SVG 20010904//EN"
 "http://www.w3.org/TR/2001/REC-SVG-20010904/DTD/svg10.dtd">
<svg version="1.0" xmlns="http://www.w3.org/2000/svg"
 width="700.000000pt" height="700.000000pt" viewBox="0 0 700.000000 700.000000"
 preserveAspectRatio="xMidYMid meet">
<metadata>
Created by potrace 1.14, written by Peter Selinger 2001-2017
</metadata>
<g transform="translate(0.000000,700.000000) scale(0.100000,-0.100000)"
fill="#000000" stroke="none">
<path d="M2954 6990 c-399 -28 -798 -153 -1144 -359 -230 -137 -414 -285 -630
-507 -275 -283 -492 -595 -685 -989 -473 -961 -616 -2059 -385 -2950 157 -603
480 -1091 965 -1455 518 -389 1092 -621 1745 -706 167 -22 590 -25 755 -6 518
62 992 225 1405 484 365 230 778 594 1063 936 819 984 1129 2134 862 3192
-132 525 -381 959 -761 1331 -589 575 -1410 920 -2424 1019 -144 14 -619 20
-766 10z m1438 -1011 c229 -49 378 -237 444 -559 12 -63 30 -149 38 -190 8
-41 33 -162 56 -269 72 -343 127 -703 215 -1396 25 -198 66 -502 90 -675 25
-173 54 -403 65 -510 24 -236 45 -363 73 -450 14 -43 21 -91 21 -142 0 -67 -4
-84 -34 -144 -66 -128 -179 -191 -324 -182 -118 8 -226 79 -275 181 -51 105
-96 335 -131 667 -11 107 -36 303 -55 435 -19 132 -62 452 -95 710 -70 549
-109 823 -151 1065 -29 167 -108 551 -114 559 -11 11 -138 -276 -209 -473
-118 -324 -317 -1084 -361 -1377 -58 -381 -90 -519 -151 -646 -64 -133 -171
-198 -319 -191 -97 4 -159 31 -224 98 -87 89 -106 166 -141 575 -62 714 -132
1194 -215 1470 -37 122 -108 285 -125 285 -13 0 -54 -57 -85 -119 -60 -120
-122 -355 -160 -608 -52 -351 -65 -790 -45 -1538 8 -275 14 -585 14 -690 1
-185 0 -192 -25 -246 -37 -79 -90 -133 -166 -171 -56 -27 -75 -32 -143 -32
-68 0 -87 5 -143 32 -76 38 -129 93 -165 171 -26 56 -26 57 -33 411 -4 195
-13 540 -18 765 -16 584 1 987 55 1364 88 616 246 996 496 1195 132 106 271
156 433 156 363 0 623 -285 775 -849 l23 -84 57 165 c121 347 269 671 401 873
184 284 417 414 651 364z"/>
</g>
</svg>
